<svg xmlns="http://www.w3.org/2000/svg" width="25" height="25" viewBox="0 0 25 25"><path fill-rule="evenodd" d="M 12.544922 0 A 12.5 12.5 0 0 0 0.044921875 12.5 A 12.5 12.5 0 0 0 12.544922 25 A 12.5 12.5 0 0 0 25.044922 12.5 A 12.5 12.5 0 0 0 12.544922 0 z M 17.007812 7 L 17.007812 15.695312 C 17.007812 16.794013 16.106459 17.695312 15.007812 17.695312 C 13.909166 17.695312 13.007812 16.794013 13.007812 15.695312 C 13.007812 14.596712 13.909166 13.695312 15.007812 13.695312 C 15.373309 13.695312 15.71191 13.801009 16.007812 13.974609 L 16.007812 8.3886719 L 11.007812 10.054688 L 11.007812 16.695312 C 11.007812 17.794013 10.106459 18.695312 9.0078125 18.695312 C 7.9091653 18.695312 7.0078125 17.794013 7.0078125 16.695312 C 7.0078125 15.596712 7.9091653 14.695312 9.0078125 14.695312 C 9.3733096 14.695312 9.7119099 14.801009 10.007812 14.974609 L 10.007812 9.3339844 L 17.007812 7 z M 15.007812 14.695312 C 14.449605 14.695312 14.007812 15.137113 14.007812 15.695312 C 14.007812 16.253612 14.449606 16.695312 15.007812 16.695312 C 15.56602 16.695312 16.007812 16.253612 16.007812 15.695312 C 16.007812 15.137113 15.566019 14.695312 15.007812 14.695312 z M 9.0078125 15.695312 C 8.4496054 15.695312 8.0078125 16.137113 8.0078125 16.695312 C 8.0078125 17.253612 8.4496054 17.695312 9.0078125 17.695312 C 9.5660196 17.695312 10.007812 17.253612 10.007812 16.695312 C 10.007813 16.137113 9.5660196 15.695312 9.0078125 15.695312 z "/></svg>